<?xml version="1.0" encoding="utf-8"?>
<!-- Generator: Adobe Illustrator 22.1.0, SVG Export Plug-In . SVG Version: 6.00 Build 0)  -->
<svg version="1.1" id="Capa_1" xmlns="http://www.w3.org/2000/svg" xmlns:xlink="http://www.w3.org/1999/xlink" x="0px" y="0px"
	 viewBox="0 0 62.7 62.7" style="enable-background:new 0 0 62.7 62.7;" xml:space="preserve">
<style type="text/css">
	.st0{fill:#404852;}
	.st1{fill:#FFFFFF;}
</style>
<title>accident</title>
<path class="st0" d="M62.7,31.3c0,17.3-14,31.3-31.3,31.3C14,62.7,0,48.6,0,31.3S14,0,31.3,0c0,0,0,0,0,0C48.6,0,62.6,14,62.7,31.3"
	/>
<g>
	<path class="st1" d="M32,32.7c-1.3-3.7-2.7-7.4-4.2-11.7c-1.3,2.7-2.5,4.9-3.5,7.1c-0.6,1.3-1.3,1.9-2.8,1.8
		c-2.4-0.1-4.7-0.2-7.1,0c-1.8,0.1-2.4-0.7-2.8-2.3c-1.1-4.8,1-9.3,5.8-11.7c4.6-2.4,9.5-1.6,12.7,2c0.3,0.4,0.6,0.8,1.1,1.5
		c0.5-0.6,1-1.2,1.5-1.7c3.3-3.5,8.4-4.1,13-1.5c4.5,2.6,6.5,7.1,5.2,11.8c-0.4,1.4-1,2-2.5,2c-3.4-0.1-6.8-0.1-10.3,0
		c-2.4,0-5.2-0.8-5.6,3.5C32.4,33.2,32.2,32.9,32,32.7z"/>
	<path class="st1" d="M31.6,41c1.3-2.4,2.4-4.5,3.6-6.5c0.4-0.6,1.2-1.3,1.9-1.4C40.8,33,44.4,33,48.8,33c-1.7,2-2.9,3.8-4.4,5.1
		c-3.8,3.3-7.8,6.5-11.8,9.6c-0.5,0.4-1.8,0.5-2.3,0.2C24.6,44.1,19.2,40,15,34.5c-0.2-0.3-0.4-0.7-0.8-1.4c2.9,0,5.5-0.1,8.1,0
		c2,0.1,3.6-0.2,4.2-2.4c0.1-0.4,0.5-0.7,0.8-1.2C28.8,33.3,30.1,36.9,31.6,41z"/>
</g>
</svg>
