<svg xmlns="http://www.w3.org/2000/svg" viewBox="0 0 62.65 62.65"><defs><style>.cls-1{fill:#404852;}.cls-2{fill:#fff;}</style></defs><title>life</title><g id="Capa_2" data-name="Capa 2"><g id="fallecimiento"><path class="cls-1" d="M62.65,31.32A31.33,31.33,0,1,1,31.33,0,31.33,31.33,0,0,1,62.65,31.32"/><path class="cls-2" d="M27.25,28a1.3,1.3,0,0,0,.24-.81,1.12,1.12,0,0,0-.28-.8.79.79,0,0,0-.59-.3H25v2.23h1.72A.71.71,0,0,0,27.25,28Z"/><path class="cls-2" d="M38.18,26.37a.84.84,0,0,0-.29-.2.87.87,0,0,0-.32-.06H36.1v2.23h1.54a.75.75,0,0,0,.58-.29,1.28,1.28,0,0,0,.24-.84,1.44,1.44,0,0,0-.08-.49A1,1,0,0,0,38.18,26.37Z"/><rect class="cls-2" x="14.69" y="44.24" width="33.26" height="5.45"/><path class="cls-2" d="M44.94,26.57a13.62,13.62,0,1,0-27.23,0V42.09H44.94ZM30.77,24.45h1.88v8.17H30.77V24.45Zm-7.71,0h3.68a2.28,2.28,0,0,1,1.07.25,2.9,2.9,0,0,1,.84.63,2.81,2.81,0,0,1,.56.88,2.74,2.74,0,0,1,.2,1,2.86,2.86,0,0,1-.09.73,2.41,2.41,0,0,1-.27.66,2.11,2.11,0,0,1-.42.56,2.23,2.23,0,0,1-.55.42l1.79,3H27.74L26.18,30H25v2.64H23.06V24.45ZM39.61,36.92H23V34.77H39.61Zm.57-8.67a3.13,3.13,0,0,1-.53.88,2.51,2.51,0,0,1-.82.62,2.39,2.39,0,0,1-1.07.23H36.1v2.64H34.22V24.45H37.7a2.25,2.25,0,0,1,1.07.25,2.65,2.65,0,0,1,.84.63,2.78,2.78,0,0,1,.55.88,2.56,2.56,0,0,1,.21,1A3,3,0,0,1,40.18,28.25Z"/></g></g></svg>