<svg xmlns="http://www.w3.org/2000/svg" viewBox="0 0 62.65 62.65"><defs><style>.cls-1{fill:#404852;}.cls-2{fill:#f8f8f8;}</style></defs><title>disability</title><g id="Capa_2" data-name="Capa 2"><g id="Capa_3" data-name="Capa 3"><path class="cls-1" d="M62.65,31.32A31.33,31.33,0,1,1,31.33,0,31.33,31.33,0,0,1,62.65,31.32"/><path class="cls-2" d="M27.62,55.31c-.45-1-1.27-1.94-1.29-2.93-.11-6.24-.06-12.49,0-18.74a7.54,7.54,0,0,1,.15-.91c.65.18,1.23.31,1.8.49,3,1,5,.4,5.95-1.74s.17-3.85-2.62-5.72c1-2.84,2-5.76,3.07-8.66a1.34,1.34,0,0,1,1-.61c2.53-.32,5,1.25,5.14,3.78.29,4.91.28,9.85.2,14.78,0,.61-1.27,1.2-2,1.8-.57-.7-1.6-1.38-1.64-2.11-.2-4-.15-8-.19-12,0-.66-.07-1.32-.1-2l-.53,0c-.06.67-.19,1.34-.19,2,0,9.62.07,19.24,0,28.86,0,1.24-.8,2.46-1.23,3.7H33.25c-.48-1.21-1.33-2.41-1.36-3.63-.16-5-.06-10.08-.08-15.12a11.32,11.32,0,0,0-.29-1.71l-.53.07c0,.66-.1,1.32-.1,2,0,4.92.09,9.84-.07,14.75,0,1.23-.86,2.43-1.32,3.65Z"/><path class="cls-2" d="M32.57,16.52,29.62,25c-3,.15-3.78-1.57-3.75-4.08L24.51,29.5c-1.76-.19-2.76-.74-2.81-2.16a52.68,52.68,0,0,1,.08-6.53,4.29,4.29,0,0,1,4.36-4.26c2-.16,4.09,0,6.43,0"/><path class="cls-2" d="M35.23,11.24a3.91,3.91,0,0,1-3.9,3.93,4,4,0,0,1-3.87-4,4,4,0,0,1,3.82-3.85,4,4,0,0,1,3.95,3.9"/><path class="cls-2" d="M30.12,31.43l1-3.11.54-.16c.26.69.86,1.48.69,2-.22.69-1.07,1.18-1.65,1.76Z"/></g></g></svg>