<svg xmlns="http://www.w3.org/2000/svg" viewBox="0 0 62.65 62.65"><defs><style>.cls-1{fill:#404852;}.cls-2{fill:#fff;}.cls-3{fill:#f8f8f8;}</style></defs><title>accident</title><g id="Capa_2" data-name="Capa 2"><g id="Capa_4_copia" data-name="Capa 4 copia"><path class="cls-1" d="M62.65,31.32A31.33,31.33,0,1,1,31.33,0,31.33,31.33,0,0,1,62.65,31.32"/><path class="cls-2" d="M20.25,28a1.3,1.3,0,0,0,.24-.81,1.12,1.12,0,0,0-.28-.8.79.79,0,0,0-.59-.3H18v2.23h1.72A.71.71,0,0,0,20.25,28Z"/><path class="cls-2" d="M31.18,26.37a.84.84,0,0,0-.29-.2.87.87,0,0,0-.32-.06H29.1v2.23h1.54a.75.75,0,0,0,.58-.29,1.28,1.28,0,0,0,.24-.84,1.44,1.44,0,0,0-.08-.49A1,1,0,0,0,31.18,26.37Z"/><rect class="cls-2" x="7.69" y="44.24" width="33.26" height="5.45"/><path class="cls-2" d="M37.94,26.57a13.62,13.62,0,1,0-27.23,0V42.09H37.94ZM23.77,24.45h1.88v8.17H23.77V24.45Zm-7.71,0h3.68a2.28,2.28,0,0,1,1.07.25,2.9,2.9,0,0,1,.84.63,2.81,2.81,0,0,1,.56.88,2.74,2.74,0,0,1,.2,1,2.86,2.86,0,0,1-.09.73,2.41,2.41,0,0,1-.27.66,2.11,2.11,0,0,1-.42.56,2.23,2.23,0,0,1-.55.42l1.79,3H20.74L19.18,30H18v2.64H16.06V24.45ZM32.61,36.92H16V34.77H32.61Zm.57-8.67a3.13,3.13,0,0,1-.53.88,2.51,2.51,0,0,1-.82.62,2.39,2.39,0,0,1-1.07.23H29.1v2.64H27.22V24.45H30.7a2.25,2.25,0,0,1,1.07.25,2.65,2.65,0,0,1,.84.63,2.78,2.78,0,0,1,.55.88,2.56,2.56,0,0,1,.21,1A3,3,0,0,1,33.18,28.25Z"/><path class="cls-3" d="M52.88,33.06a7.23,7.23,0,0,1-1.75-.9c-1-.92-1.91-2-3-3.12-.57,1.41-1,2.65-1.58,3.82a5.73,5.73,0,0,1-1.12,1.2,5.05,5.05,0,0,1-.79-1.4c-.25-1.5-.37-3-.57-4.76-1.33.73-2.5,1.42-3.72,2A3.75,3.75,0,0,1,39,30a3.93,3.93,0,0,1,0-1.37c.59-1.56,1.29-3.09,2-4.71l-1.35-.75.65-1.31a8.75,8.75,0,0,1,2.18.74c.28.17.36,1,.22,1.41-.33,1.07-.84,2.07-1.46,3.52,1.14-.61,1.88-1,2.65-1.42,1.17-.6,1.56-.38,1.75.94a7.46,7.46,0,0,0,.54,2.23c.19-.41.41-.81.58-1.23.66-1.64,1.05-1.71,2.35-.4.2.2.43.38,1,.85-.3-.94-.46-1.52-.67-2.08-.38-1-.07-1.51,1-1.64.78-.1,1.55-.24,2.8-.44-1-.54-1.69-.9-2.36-1.21-1.82-.87-1.87-1.31-.28-2.48a11.75,11.75,0,0,0,2.33-2.11l-3.64.16c-1.69.07-1.92-.25-1.39-1.9.21-.64.43-1.28.77-2.35-.93.61-1.55.95-2.09,1.38-1.11.89-1.85.62-2.41-.61a13.59,13.59,0,0,0-.82-1.35c-.08,1,.17,2.24-.3,2.67s-1.72.23-2.8.31A13.35,13.35,0,0,1,41.2,18c.3.41.81,1,.69,1.3s-.81.68-1,.83c-1.22-1.22-2.29-2.21-3.26-3.29a8.13,8.13,0,0,1-.91-1.7,9.1,9.1,0,0,1,1.77-.3c1,0,2,.22,3.08.36-.19-1.75-.42-3.35-.53-5,0-.44.32-.91.49-1.37.41.27,1,.46,1.2.84,1,1.53,1.85,3.13,2.83,4.81,1.26-.86,2.37-1.66,3.55-2.37a4.87,4.87,0,0,1,1.46-.34,4.51,4.51,0,0,1,.12,1.49c-.32,1.22-.76,2.42-1.21,3.79,2-.1,3.9-.24,5.76-.25a5.56,5.56,0,0,1,1.66.54,5.45,5.45,0,0,1-.94,1.34c-1.3,1-2.68,2-4.21,3.07,1.47.72,2.77,1.3,4,2,.38.21.62.67.93,1-.4.29-.76.74-1.21.84-1.39.3-2.81.47-4.33.71.71,2.15,1.38,4.19,2.06,6.22Z"/></g></g></svg>