<?xml version="1.0" encoding="utf-8"?>
<!-- Generator: Adobe Illustrator 22.1.0, SVG Export Plug-In . SVG Version: 6.00 Build 0)  -->
<svg version="1.1" id="Capa_1" xmlns="http://www.w3.org/2000/svg" xmlns:xlink="http://www.w3.org/1999/xlink" x="0px" y="0px"
	 viewBox="0 0 62.7 62.7" style="enable-background:new 0 0 62.7 62.7;" xml:space="preserve">
<style type="text/css">
	.st0{fill:#404852;}
	.st1{fill:#FFFFFF;}
	.st2{fill:#F8F8F8;}
</style>
<title>ilt</title>
<g>
	<path class="st0" d="M62.3,31.3c0,17.1-13.9,31-31,31c-17.1,0-31-13.9-31-31c0-17.1,13.9-31,31-31C48.4,0.3,62.3,14.2,62.3,31.3"/>
	<g>
		<g>
			<path class="st1" d="M40.4,24.5c0-0.3-0.2-0.5-0.5-0.5h-1.7c-0.3,0-0.5,0.2-0.5,0.5v1.7c0,0.3,0.2,0.5,0.5,0.5h1.7
				c0.3,0,0.5-0.2,0.5-0.5V24.5L40.4,24.5z"/>
			<path class="st1" d="M44.5,24.5c0-0.3-0.2-0.5-0.5-0.5h-1.7c-0.3,0-0.5,0.2-0.5,0.5v1.7c0,0.3,0.2,0.5,0.5,0.5h1.7
				c0.3,0,0.5-0.2,0.5-0.5V24.5z"/>
			<path class="st1" d="M48.7,24.5c0-0.3-0.2-0.5-0.5-0.5h-1.7c-0.3,0-0.5,0.2-0.5,0.5v1.7c0,0.3,0.2,0.5,0.5,0.5h1.7
				c0.3,0,0.5-0.2,0.5-0.5V24.5z"/>
			<path class="st1" d="M40.4,28.7c0-0.3-0.2-0.5-0.5-0.5h-1.7c-0.3,0-0.5,0.2-0.5,0.5v1.7c0,0.3,0.2,0.5,0.5,0.5h1.7
				c0.3,0,0.5-0.2,0.5-0.5V28.7L40.4,28.7z"/>
			<path class="st1" d="M44.5,28.7c0-0.3-0.2-0.5-0.5-0.5h-1.7c-0.3,0-0.5,0.2-0.5,0.5v1.7c0,0.3,0.2,0.5,0.5,0.5h1.7
				c0.3,0,0.5-0.2,0.5-0.5V28.7z"/>
			<path class="st1" d="M48.7,28.7c0-0.3-0.2-0.5-0.5-0.5h-1.7c-0.3,0-0.5,0.2-0.5,0.5v1.7c0,0.3,0.2,0.5,0.5,0.5h1.7
				c0.3,0,0.5-0.2,0.5-0.5L48.7,28.7L48.7,28.7z"/>
			<path class="st1" d="M51.7,15.3v2.6c0,1.2-0.9,2.1-2.1,2.1h-1.3c-1.2,0-2.1-0.9-2.1-2.1v-2.6h-5.9v2.6c0,1.2-0.9,2.1-2.1,2.1
				h-1.3c-1.2,0-2.1-0.9-2.1-2.1v-2.6c-1,0-1.8,0.9-1.8,1.9v15c0,1,0.8,1.9,1.9,1.9h16.8c1,0,1.9-0.9,1.9-1.9v-15
				C53.5,16.1,52.7,15.3,51.7,15.3z M51.1,31.2c0,0.5-0.4,0.8-0.8,0.8H36.1c-0.5,0-0.8-0.4-0.8-0.8v-7.7c0-0.5,0.4-0.8,0.8-0.8h14.1
				c0.5,0,0.8,0.4,0.8,0.8L51.1,31.2L51.1,31.2z"/>
			<path class="st1" d="M36.8,18.5h1.3c0.4,0,0.7-0.3,0.7-0.7v-4.2c0-0.4-0.3-0.7-0.7-0.7h-1.3c-0.4,0-0.7,0.3-0.7,0.7v4.2
				C36.1,18.2,36.4,18.5,36.8,18.5z"/>
			<path class="st1" d="M48.3,18.5h1.3c0.4,0,0.7-0.3,0.7-0.7v-4.2c0-0.4-0.3-0.7-0.7-0.7h-1.3c-0.4,0-0.7,0.3-0.7,0.7v4.2
				C47.6,18.2,47.9,18.5,48.3,18.5z"/>
		</g>
	</g>
	<path class="st2" d="M15.9,55.1c-0.4-1-1.3-1.9-1.3-2.9c-0.1-6.2-0.1-12.4-0.1-18.5c0-0.2,0.1-0.5,0.2-0.9c0.6,0.2,1.2,0.3,1.8,0.5
		c3,1,4.9,0.4,5.9-1.7c0.9-2,0.2-3.8-2.6-5.7c1-2.8,2-5.7,3-8.6c0.1-0.3,0.6-0.6,1-0.6c2.5-0.3,4.9,1.2,5.1,3.7
		c0.3,4.9,0.3,9.8,0.2,14.6c0,0.6-1.3,1.2-1.9,1.8c-0.6-0.7-1.6-1.4-1.6-2.1c-0.2-3.9-0.1-7.9-0.2-11.9c0-0.7-0.1-1.3-0.1-2
		c-0.2,0-0.3,0-0.5,0c-0.1,0.7-0.2,1.3-0.2,2c0,9.5,0.1,19,0,28.6c0,1.2-0.8,2.4-1.2,3.7h-1.9c-0.5-1.2-1.3-2.4-1.3-3.6
		c-0.2-5-0.1-10-0.1-15c0-0.6-0.2-1.1-0.3-1.7c-0.2,0-0.4,0-0.5,0.1c0,0.7-0.1,1.3-0.1,2c0,4.9,0.1,9.7-0.1,14.6
		c0,1.2-0.9,2.4-1.3,3.6H15.9z"/>
	<path class="st2" d="M20.8,16.7c-1.1,3-2,5.7-2.9,8.4c-3,0.1-3.7-1.6-3.7-4c-0.4,2.8-0.9,5.6-1.3,8.5C11,29.3,10,28.8,10,27.4
		c-0.1-2.2-0.1-4.3,0.1-6.5c0.2-2.6,1.7-4,4.3-4.2C16.4,16.5,18.4,16.7,20.8,16.7"/>
	<path class="st2" d="M23.4,11.4c0,2.1-1.7,3.9-3.9,3.9c-2.1,0-3.9-1.8-3.8-3.9c0-2,1.8-3.8,3.8-3.8C21.6,7.5,23.4,9.3,23.4,11.4"/>
	<path class="st2" d="M18.3,31.4c0.3-1,0.7-2,1-3.1c0.2-0.1,0.4-0.1,0.5-0.2c0.3,0.7,0.9,1.5,0.7,2c-0.2,0.7-1.1,1.2-1.6,1.7
		L18.3,31.4z"/>
</g>
</svg>
